<?xml version="1.0" encoding="utf-8"?>
<!-- Generator: Adobe Illustrator 18.0.0, SVG Export Plug-In . SVG Version: 6.00 Build 0)  -->
<!DOCTYPE svg PUBLIC "-//W3C//DTD SVG 1.1//EN" "http://www.w3.org/Graphics/SVG/1.1/DTD/svg11.dtd">
<svg version="1.1" id="Layer_1" xmlns="http://www.w3.org/2000/svg" xmlns:xlink="http://www.w3.org/1999/xlink" x="0px" y="0px"
	 viewBox="0 0 250 250" enable-background="new 0 0 250 250" xml:space="preserve">
<g>
	<path fill="#009CE3" d="M219.1,171.7l-20-11.5l13.4-2c4.5-0.7,7.5-4.8,6.9-9.3c-0.7-4.5-4.8-7.5-9.3-6.9l-33.7,5.1l-12-6.9v-9
		l19.1-0.4c4.5-0.1,8.1-3.8,8-8.3c-0.1-4.5-3.8-8.1-8.3-8l-18.8,0.4v-6l11.5-7.7l34,2.8c4.5,0.4,8.5-3,8.8-7.5
		c0.4-4.5-3-8.4-7.5-8.8l-13.5-1.1l19.2-12.9c3.8-2.5,4.7-7.6,2.2-11.4c-2.5-3.8-7.6-4.8-11.4-2.2l-19.2,12.9l4.1-12.9
		c1.4-4.3-1-8.9-5.3-10.3c-4.3-1.4-8.9,1-10.3,5.3l-10.3,32.5l-13,8.7l-3.2-1.8l10.3-21.7c1.9-4.1,0.2-9-3.9-10.9
		c-4.1-1.9-9-0.2-10.9,3.9l-9.9,20.9l-2.5-1.3V64l21.2-26.7c2.8-3.5,2.2-8.7-1.3-11.5s-8.7-2.2-11.5,1.3l-8.4,10.6V14.6
		c0-4.5-3.7-8.2-8.2-8.2s-8.2,3.7-8.2,8.2v23.1l-8.4-10.6c-2.8-3.5-8-4.1-11.5-1.3c-3.5,2.8-4.1,8-1.3,11.5L117.3,64v20.2l-2.3,1.3
		l-9.3-19.8c-1.9-4.1-6.8-5.8-10.9-3.9c-4.1,1.9-5.8,6.8-3.9,10.9l9.9,21l-4.3,2.5L81,87.3L68.5,55.6c-1.7-4.2-6.4-6.3-10.6-4.6
		c-4.2,1.7-6.3,6.4-4.6,10.6l5,12.6l-20-11.5c-3.9-2.3-8.9-0.9-11.2,3c-2.3,3.9-0.9,8.9,3,11.2l20,11.5l-13.4,2
		c-4.5,0.7-7.5,4.8-6.9,9.3c0.7,4.5,4.8,7.5,9.3,6.9l33.7-5.1l13.7,7.9v5.2l-19.1,0.4c-4.5,0.1-8.1,3.8-8,8.3c0,1.3,0.3,2.4,0.9,3.5
		c1.4,2.7,4.2,4.6,7.5,4.5l18.8-0.4v5.8l-16,10.7l-34-2.8c-4.5-0.4-8.5,3-8.8,7.5c-0.4,4.5,3,8.4,7.5,8.8l13.5,1.1L29.6,175
		c-3.8,2.5-4.7,7.6-2.2,11.4c2.5,3.8,7.6,4.8,11.4,2.2l19.2-12.9l-4.1,12.9c-1.4,4.3,1,8.9,5.3,10.3c4.3,1.4,8.9-1,10.3-5.3
		l10.3-32.5l8.9-5.9l0.7,0.4c0.1,0,0.1,0.1,0.2,0.1l8.4,4.6l-6.9,14.6c-1.9,4.1-0.2,9,3.9,10.9c4.1,1.9,9,0.2,10.9-3.9l6.6-13.8
		l7.1,3.8v16l-21.2,26.7c-2.8,3.5-2.2,8.7,1.3,11.5s8.7,2.2,11.5-1.3l8.4-10.6v23.1c0,4.5,3.7,8.2,8.2,8.2s8.2-3.7,8.2-8.2V214
		l8.4,10.6c2.8,3.5,8,4.1,11.5,1.3c3.5-2.8,4.1-8,1.3-11.5l-21.2-26.7v-17.2l4-2.3l6.3,13.5c1.9,4.1,6.8,5.8,10.9,3.9
		c4.1-1.9,5.8-6.8,3.9-10.9l-6.9-14.8l6-3.5l8.2,4.7l12.5,31.7c1.7,4.2,6.4,6.3,10.6,4.6c4.2-1.7,6.3-6.4,4.6-10.6l-5-12.6l20,11.5
		c3.9,2.3,8.9,0.9,11.2-3C224.4,179,223,174,219.1,171.7z M107.4,141.8C107.4,141.8,107.4,141.7,107.4,141.8l-0.5-0.3h0
		c-0.6-0.4-1-1-1-1.6v-23.8c0-0.7,0.4-1.3,1-1.7h-0.1l16.3-9.4c0.9-0.8,2.4-0.8,3.3,0l17.4,9.4h-0.1c0.6,0.4,1,1,1,1.7v23.8
		c0,0.7-0.4,1.3-1,1.6h0l-16.3,9.4c-0.9,0.8-2.4,0.8-3.3,0L107.4,141.8z"/>
</g>
</svg>
