<?xml version="1.0" encoding="utf-8"?>
<!-- Generator: Adobe Illustrator 18.0.0, SVG Export Plug-In . SVG Version: 6.00 Build 0)  -->
<!DOCTYPE svg PUBLIC "-//W3C//DTD SVG 1.1//EN" "http://www.w3.org/Graphics/SVG/1.1/DTD/svg11.dtd">
<svg version="1.1" id="Layer_1" xmlns="http://www.w3.org/2000/svg" xmlns:xlink="http://www.w3.org/1999/xlink" x="0px" y="0px"
	 viewBox="0 0 1024 2716.9" enable-background="new 0 0 1024 2716.9" xml:space="preserve">
<rect fill="#E9E9E9" width="1024" height="1723.1"/>
<g>
	<text transform="matrix(1 0 0 1 448.4646 1420.6613)" fill="#333333" font-family="'OpenSans'" font-size="18" letter-spacing="1">Enjoy the Arts</text>
</g>
<path fill="#54BAB2" d="M610.6,1544.7H417.5c-1.1,0-2-0.9-2-2v-48.2c0-1.1,0.9-2,2-2h193.1c1.1,0,2,0.9,2,2v48.2
	C612.6,1543.8,611.7,1544.7,610.6,1544.7z"/>
<text transform="matrix(1 0 0 1 438.9143 1526.9653)" fill="#FFFFFF" font-family="'OpenSans-Semibold'" font-size="21.5452" letter-spacing="1">See the work</text>
<g>
	<text transform="matrix(1 0 0 1 283.5363 1457.4385)" fill="#333333" font-family="'OpenSans-Bold'" font-size="24">Reinventing arts for a new generation.</text>
</g>
<rect x="639" y="2709" display="none" opacity="0.79" fill="#333333" width="342" height="261"/>
<g>
	<text transform="matrix(1 0 0 1 234.427 288.918)" fill="#333333" font-family="'SourceSansPro-Bold'" font-size="18">I balance time, beauty and function when I design and build an app. </text>
</g>
<text transform="matrix(1 0 0 1 316.6654 212.0284)" fill="#333333" font-family="'SourceSansPro-Regular'" font-size="18">User Experience Designer + Front-End Developer</text>
<text transform="matrix(1 0 0 1 331.3557 239.8414)"><tspan x="0" y="0" fill="#333333" font-family="'SourceSansPro-Regular'" font-size="18">Working full-time for </tspan><tspan x="158.8" y="0" fill="#FF807C" font-family="'SourceSansPro-Bold'" font-size="18" text-decoration=" underline">Gaslight</tspan><tspan x="224.7" y="0" fill="#333333" font-family="'SourceSansPro-Regular'" font-size="18"> in Cincinnati, Ohio</tspan></text>
<g>
	<circle fill="#FF807C" cx="474.1" cy="346.7" r="4.1"/>
	<circle fill="#FF807C" cx="503.8" cy="346.7" r="4.1"/>
	<circle fill="#FF807C" cx="533.5" cy="346.7" r="4.1"/>
</g>
<text transform="matrix(1 0 0 1 413.4186 181.4066)" fill="#FF807C" font-family="'Courier'" font-size="24">I’m Kristin.</text>
<text transform="matrix(1 0 0 1 477.547 841.0274)" fill="#333333" font-family="'OpenSans'" font-size="18" letter-spacing="1">Chomps</text>
<text transform="matrix(1 0 0 1 361.4388 871.2123)" fill="#333333" font-family="'OpenSans-Bold'" font-size="24">DIY paper toys with a bite</text>
<path fill="#333333" d="M619.2,953.5H426.1c-1.1,0-2-0.9-2-2v-48.2c0-1.1,0.9-2,2-2h193.1c1.1,0,2,0.9,2,2v48.2
	C621.2,952.6,620.3,953.5,619.2,953.5z"/>
<text transform="matrix(1 0 0 1 447.4651 935.7607)" fill="#FFFFFF" font-family="'OpenSans-Semibold'" font-size="21.5452" letter-spacing="1">See the work</text>
<g>
	<defs>
		<polygon id="SVGID_17_" points="331.2,757.1 336.9,639 337,636.8 339.2,639.3 344.5,535.7 342.4,532.9 347.3,512.7 363.5,502 
			482.6,502 487.5,517.3 499.1,608.9 504.4,605.8 522.7,702.3 540,604.7 542.5,607.2 551.3,550.5 678.4,547.3 685.5,567 
			688.6,608.3 702.7,643.4 714,761 519,761 519,750.9 		"/>
	</defs>
	<clipPath id="SVGID_2_">
		<use xlink:href="#SVGID_17_"  overflow="visible"/>
	</clipPath>
	<g clip-path="url(#SVGID_2_)">
		
			<image overflow="visible" width="600" height="450" xlink:href="../../../Dropbox/Save These/chomps/270de83bed6d7b8e628f346343ed2acc.jpg"  transform="matrix(0.8366 0 0 0.8366 273.2057 442.4118)">
		</image>
	</g>
</g>
<rect x="10.6" y="9" opacity="0.75" fill="#FFFFFF" width="1005.5" height="64"/>
<g>
	<text transform="matrix(1 0 0 1 910.3784 46.3336)" fill="#C3C3C3" font-family="'OpenSans'" font-size="18">Say Hello</text>
</g>
<g>
	<text transform="matrix(1 0 0 1 295.7601 50.0003)" fill="#C3C3C3" font-family="'OpenSans'" font-size="18">About</text>
</g>
<g>
	<text transform="matrix(1 0 0 1 210.7115 50.0001)" fill="#C3C3C3" font-family="'OpenSans'" font-size="18">Work</text>
</g>
<text transform="matrix(1 0 0 1 31.4249 50.0005)" fill="#333333" font-family="'SourceSansPro-Bold'" font-size="18" letter-spacing="1">KRISTIN LASITA</text>
<g>
	<defs>
		<path id="SVGID_19_" d="M269.3,1374l13.6-4c0,0-19.7-4.3-19.1-12.3c0.6-8,50.2-3.6,50.2-3.6v-271.6c0,0,1.2-7.4,12.6-7.4
			s396.2,0,396.2,0s12.2,0,12.2,10.5s0,269.8,0,269.8l47-1.2v10.5l-16,4.8l11.3,4.7H269.3z"/>
	</defs>
	<clipPath id="SVGID_4_">
		<use xlink:href="#SVGID_19_"  overflow="visible"/>
	</clipPath>
	<g clip-path="url(#SVGID_4_)">
		<defs>
			<rect id="SVGID_21_" x="234.9" y="1074.8" width="551.4" height="299.5"/>
		</defs>
		<clipPath id="SVGID_6_">
			<use xlink:href="#SVGID_21_"  overflow="visible"/>
		</clipPath>
		<g clip-path="url(#SVGID_6_)">
			
				<image overflow="visible" width="960" height="676" xlink:href="../../../Google Drive/Internal/11_Portfolio/Images/Folders/MacBook-Pro-Retina-mockup-PIXEDEN/preview.jpg"  transform="matrix(0.6048 0 0 0.6048 234.9418 1015.0452)">
			</image>
		</g>
		<g clip-path="url(#SVGID_6_)">
			<defs>
				<rect id="SVGID_23_" x="326.1" y="1085.2" width="397" height="244.1"/>
			</defs>
			<clipPath id="SVGID_8_">
				<use xlink:href="#SVGID_23_"  overflow="visible"/>
			</clipPath>
			<g clip-path="url(#SVGID_8_)">
				
					<image overflow="visible" width="2880" height="1492" xlink:href="51292F6B5F4D78FE.jpg"  transform="matrix(0.191 0 0 0.191 280.5002 1063.5139)">
				</image>
			</g>
		</g>
	</g>
</g>
</svg>
